<?xml version="1.0" standalone="no"?>
<!DOCTYPE svg PUBLIC "-//W3C//DTD SVG 20010904//EN"
 "http://www.w3.org/TR/2001/REC-SVG-20010904/DTD/svg10.dtd">
<svg version="1.0" xmlns="http://www.w3.org/2000/svg"
 width="1024.000000pt" height="1024.000000pt" viewBox="0 0 1024.000000 1024.000000"
 preserveAspectRatio="xMidYMid meet">
<metadata>
Created by potrace 1.14, written by Peter Selinger 2001-2017
</metadata>
<g transform="translate(0.000000,1024.000000) scale(0.100000,-0.100000)"
fill="#000000" stroke="none">
<path d="M4858 10235 c-1 -1 -46 -5 -99 -9 -273 -16 -613 -71 -904 -146 -208
-53 -480 -140 -582 -186 -17 -8 -34 -14 -38 -14 -4 0 -21 -6 -38 -14 -18 -8
-61 -27 -97 -41 -103 -43 -354 -167 -484 -239 -109 -61 -384 -232 -396 -246
-3 -3 -36 -28 -75 -55 -75 -52 -257 -191 -290 -222 -12 -10 -50 -43 -85 -73
-243 -205 -529 -511 -739 -790 -39 -52 -76 -101 -81 -107 -6 -7 -53 -77 -104
-155 -355 -541 -601 -1129 -735 -1758 -11 -52 -23 -112 -27 -134 -3 -21 -8
-48 -10 -60 -5 -25 -31 -201 -39 -271 -3 -27 -8 -63 -10 -80 -27 -197 -27
-806 0 -1021 3 -21 7 -57 9 -79 14 -119 21 -166 52 -335 41 -227 36 -200 74
-350 141 -549 382 -1092 693 -1560 69 -104 271 -377 322 -435 14 -16 36 -41
47 -55 270 -321 655 -666 1018 -912 119 -80 288 -187 320 -201 8 -4 31 -17 50
-29 50 -31 323 -168 405 -205 156 -68 278 -117 435 -172 152 -54 511 -154 599
-167 20 -3 44 -7 53 -10 19 -5 49 -12 93 -19 17 -3 55 -10 85 -15 30 -6 89
-14 130 -20 41 -5 91 -11 110 -14 151 -22 313 -30 595 -31 244 0 418 7 505 20
14 2 54 7 90 10 176 17 493 77 717 136 687 180 1339 509 1898 957 207 166 449
396 608 577 39 44 73 82 77 85 44 36 325 416 434 589 301 477 554 1079 661
1576 61 280 85 423 110 660 26 245 27 846 1 1005 -3 14 -7 52 -10 85 -12 113
-32 243 -62 395 -14 69 -27 136 -30 150 -10 51 -74 289 -104 384 -186 602
-501 1197 -888 1679 -231 287 -527 586 -772 779 -30 23 -57 45 -60 48 -11 14
-180 137 -294 214 -400 274 -866 500 -1336 648 -133 42 -401 113 -461 122 -20
3 -42 8 -50 10 -16 6 -27 8 -189 35 -127 22 -316 46 -442 57 -63 5 -655 14
-660 9z m547 -469 c61 -3 120 -8 130 -10 11 -2 54 -7 95 -10 263 -24 645 -106
938 -203 1001 -330 1846 -973 2430 -1850 45 -67 82 -126 82 -129 0 -4 6 -15
14 -23 7 -9 26 -38 41 -66 16 -27 48 -86 73 -130 161 -287 322 -691 412 -1040
34 -128 46 -182 76 -330 5 -26 22 -129 29 -180 3 -22 7 -49 10 -60 2 -11 7
-54 10 -95 4 -41 8 -86 11 -100 16 -102 22 -518 10 -705 -10 -155 -24 -287
-40 -394 -3 -14 -8 -46 -11 -71 -9 -56 -11 -67 -30 -160 -8 -41 -17 -85 -19
-97 -13 -63 -83 -316 -123 -438 -187 -577 -506 -1142 -898 -1594 -86 -100
-120 -136 -230 -246 -354 -354 -742 -637 -1180 -859 -205 -105 -276 -136 -495
-218 -222 -83 -482 -158 -687 -197 -156 -30 -177 -34 -193 -36 -43 -5 -127
-18 -145 -21 -10 -2 -49 -6 -85 -10 -36 -3 -74 -8 -85 -10 -30 -6 -317 -17
-430 -18 -110 0 -378 12 -410 18 -11 2 -51 7 -90 10 -38 4 -81 8 -95 11 -14 2
-61 9 -105 15 -555 81 -1130 284 -1635 578 -130 76 -404 255 -435 285 -7 7
-46 37 -86 67 -257 195 -633 570 -814 815 -17 22 -33 42 -36 45 -19 16 -200
286 -272 405 -286 474 -509 1059 -592 1554 -3 19 -7 37 -9 40 -2 3 -7 35 -11
71 -4 36 -8 67 -10 70 -4 7 -15 97 -30 245 -23 226 -23 636 0 845 2 19 6 58 9
85 13 121 18 159 46 316 114 632 360 1243 712 1768 57 84 209 293 219 301 3 3
29 33 57 68 134 167 376 415 558 572 192 166 482 372 692 492 212 122 499 260
667 321 112 40 252 89 265 93 8 2 58 16 111 33 97 29 371 95 443 106 21 3 41
7 45 9 3 2 33 7 66 11 33 3 80 10 105 15 25 5 81 11 125 15 44 4 89 9 100 11
11 2 72 7 135 10 63 4 116 7 117 8 4 3 353 -2 448 -8z"/>
<path d="M4719 9425 c-2 -2 -42 -6 -89 -10 -91 -7 -98 -7 -205 -25 -77 -12
-101 -22 -91 -38 11 -18 175 -125 356 -231 96 -57 187 -112 202 -122 15 -10
29 -19 31 -19 3 0 49 -25 103 -56 55 -31 119 -68 144 -82 83 -46 392 -223 424
-243 17 -10 38 -22 46 -26 8 -4 107 -61 220 -126 113 -66 223 -130 245 -143
22 -12 247 -142 500 -289 253 -147 476 -276 495 -287 119 -68 731 -424 762
-444 21 -13 39 -24 41 -24 2 0 54 -29 117 -65 63 -36 120 -65 127 -65 7 0 13
10 13 23 0 12 3 251 6 531 l6 509 -38 35 c-88 81 -346 293 -449 368 -480 353
-1007 598 -1585 737 -173 42 -284 60 -430 72 -41 4 -91 9 -110 12 -41 6 -835
14 -841 8z"/>
<path d="M3770 9226 c-299 -103 -530 -206 -759 -338 -46 -26 -85 -48 -87 -48
-1 0 -29 -17 -61 -38 -32 -21 -85 -56 -118 -77 -118 -77 -324 -233 -435 -331
-154 -136 -219 -200 -355 -344 -267 -285 -528 -660 -692 -996 -87 -177 -229
-521 -219 -531 7 -8 56 18 296 157 102 59 214 123 250 144 36 20 72 41 80 46
45 28 152 90 155 90 3 0 159 90 225 130 13 7 986 573 1079 626 20 12 81 47
136 79 55 32 114 66 130 75 176 102 444 257 590 342 261 152 546 317 735 426
91 52 173 100 183 107 16 11 8 18 -70 63 -48 27 -191 109 -316 181 -305 175
-307 176 -427 243 -58 32 -112 58 -120 58 -8 0 -98 -29 -200 -64z"/>
<path d="M8369 7960 c-9 -115 -13 -3190 -5 -3840 2 -173 5 -381 6 -463 1 -81
6 -150 12 -153 5 -3 96 43 201 104 106 60 215 122 242 138 28 15 78 45 113 66
34 21 64 38 66 38 2 0 68 38 147 84 l144 84 18 69 c29 112 65 302 77 408 6 55
13 111 15 125 13 91 20 265 20 530 0 270 -5 385 -20 510 -2 19 -7 58 -10 85
-3 28 -10 73 -16 100 -5 28 -14 75 -20 105 -72 364 -217 787 -384 1120 -127
254 -219 400 -426 675 -160 212 -179 234 -180 215z"/>
<path d="M1745 6683 c-429 -250 -553 -325 -668 -401 -70 -46 -132 -92 -136
-101 -16 -29 -70 -336 -97 -551 -11 -87 -12 -97 -21 -173 -10 -92 -10 -524 0
-642 5 -49 10 -111 12 -138 8 -92 43 -335 49 -346 2 -3 7 -28 10 -55 10 -73
78 -333 126 -481 150 -461 381 -906 670 -1290 109 -144 179 -225 181 -210 10
74 19 4440 9 4455 -3 5 -64 -25 -135 -67z"/>
<path d="M3159 6666 c-2 -2 -26 -6 -54 -10 -76 -9 -95 -14 -181 -42 -237 -77
-445 -243 -530 -423 -57 -119 -69 -178 -67 -326 2 -187 77 -344 235 -490 64
-59 224 -175 259 -187 19 -7 19 -7 -111 -71 -360 -175 -503 -369 -503 -682 0
-122 18 -213 60 -309 111 -253 381 -438 703 -482 25 -3 54 -8 65 -10 31 -6
263 -6 330 1 522 51 908 402 906 823 -1 145 -17 215 -72 330 -70 145 -225 277
-457 390 -100 49 -102 51 -80 66 12 9 26 16 30 16 16 0 156 91 206 134 122
104 227 270 251 396 29 145 12 302 -45 425 -108 234 -357 404 -649 443 -65 9
-289 15 -296 8z m236 -175 c171 -40 325 -206 369 -398 14 -61 15 -273 1 -338
-41 -202 -106 -320 -227 -416 l-48 -38 -147 65 c-375 164 -529 287 -590 468
-28 82 -32 209 -10 291 50 183 201 330 379 369 70 16 197 14 273 -3z m-252
-1455 c384 -171 518 -252 618 -376 72 -89 101 -171 101 -290 2 -270 -157 -484
-412 -556 -78 -22 -269 -27 -351 -9 -297 64 -481 294 -492 615 -8 226 60 420
193 549 53 52 163 131 182 131 9 0 81 -29 161 -64z"/>
<path d="M5927 5764 c-1 -1 -24 -5 -52 -8 -67 -8 -172 -39 -217 -64 -21 -12
-38 -19 -38 -16 0 14 -124 -87 -223 -184 -42 -41 -80 -72 -85 -68 -4 4 -7 67
-7 139 -1 124 -12 186 -33 173 -4 -2 -63 -7 -132 -11 -69 -4 -136 -8 -150 -10
-14 -1 -84 -6 -155 -10 -72 -4 -141 -9 -155 -10 -14 -2 -37 -3 -52 -4 -26 -1
-26 -2 -25 -68 2 -66 2 -66 32 -70 137 -15 225 -70 271 -168 l24 -50 -1 -674
c0 -725 1 -713 -52 -769 -30 -32 -102 -51 -234 -61 -7 -1 -11 -23 -10 -68 l2
-68 475 0 c261 -1 481 1 488 3 8 3 12 26 12 68 0 62 -1 65 -32 64 -2 0 -36 9
-76 20 -111 31 -163 70 -181 138 -7 24 -11 252 -11 635 l0 599 47 61 c57 75
81 98 156 147 117 78 285 109 402 75 49 -14 70 -27 121 -80 67 -68 97 -129
112 -231 5 -31 9 -313 9 -627 0 -601 -1 -621 -45 -670 -23 -26 -74 -47 -131
-54 -25 -3 -53 -7 -61 -9 -8 -1 -22 -3 -31 -3 -13 -1 -16 -12 -15 -58 1 -32 4
-62 8 -68 4 -6 172 -10 475 -9 257 1 470 2 474 3 3 0 5 30 5 66 1 52 -2 65
-15 66 -70 3 -165 34 -209 66 -69 51 -66 20 -67 707 l0 618 32 48 c66 99 156
169 278 217 61 24 84 27 180 27 94 1 116 -2 151 -21 90 -48 152 -131 184 -245
19 -69 20 -98 17 -677 -2 -559 -3 -609 -20 -642 -29 -58 -81 -80 -227 -95 -14
-1 -29 -2 -33 -3 -4 -1 -7 -31 -5 -68 l3 -68 488 0 c481 0 487 0 488 20 2 50
0 107 -4 111 -2 3 -26 7 -53 10 -56 7 -145 36 -181 60 -14 8 -34 36 -45 61
-19 44 -20 70 -23 662 -2 339 -6 634 -9 656 -45 275 -212 455 -446 482 -268
32 -464 -41 -694 -258 -49 -46 -91 -85 -95 -86 -3 -1 -17 21 -30 50 -33 69
-158 194 -237 235 -78 41 -164 63 -259 66 -41 1 -76 1 -78 0z"/>
<path d="M9115 3672 c-162 -89 -547 -308 -1090 -622 -159 -92 -306 -177 -325
-188 -19 -10 -75 -43 -125 -72 -150 -88 -328 -191 -365 -212 -19 -11 -222
-129 -450 -261 -464 -269 -635 -368 -715 -412 -30 -17 -60 -36 -67 -43 -7 -7
-15 -12 -19 -12 -11 0 -339 -192 -466 -273 -62 -40 -115 -78 -118 -86 -8 -21
0 -27 205 -148 291 -173 375 -221 529 -301 114 -60 153 -75 185 -74 127 3 630
211 972 402 642 360 1205 921 1594 1590 150 258 368 751 333 750 -5 0 -39 -17
-78 -38z"/>
<path d="M2107 3102 c-6 -11 -10 -223 -11 -665 l-1 -409 65 -56 c36 -31 67
-59 70 -62 3 -3 32 -28 65 -55 33 -28 66 -56 73 -63 8 -7 30 -25 50 -40 21
-15 39 -29 42 -32 38 -38 271 -199 415 -286 489 -297 1069 -509 1615 -590 19
-3 42 -7 50 -9 73 -20 790 -29 1027 -12 90 6 300 35 373 52 8 2 17 4 20 4 4 1
-40 31 -85 58 -205 121 -539 313 -546 313 -5 0 -9 5 -9 10 0 6 -4 10 -9 10 -8
0 -482 271 -716 409 -44 26 -172 100 -285 165 -113 65 -212 122 -220 127 -31
18 -494 285 -865 499 -126 72 -259 149 -295 170 -135 79 -571 330 -574 330 -2
0 -33 17 -67 38 -107 65 -178 101 -182 94z"/>
</g>
</svg>
